<mxfile host="app.diagrams.net" agent="Mozilla/5.0 (Windows NT 10.0; Win64; x64) AppleWebKit/537.36 (KHTML, like Gecko) Chrome/129.0.0.0 Safari/537.36" version="24.7.17">
  <diagram id="R2lEEEUBdFMjLlhIrx00" name="Page-1">
    <mxGraphModel grid="1" page="1" gridSize="10" guides="1" tooltips="1" connect="1" arrows="1" fold="1" pageScale="1" pageWidth="850" pageHeight="1100" math="0" shadow="0" extFonts="Permanent Marker^https://fonts.googleapis.com/css?family=Permanent+Marker">
      <root>
        <mxCell id="0" />
        <mxCell id="1" parent="0" />
        <mxCell id="C-vyLk0tnHw3VtMMgP7b-12" value="" style="edgeStyle=entityRelationEdgeStyle;endArrow=ERzeroToMany;startArrow=ERone;endFill=1;startFill=0;entryX=-0.002;entryY=0.426;entryDx=0;entryDy=0;entryPerimeter=0;" edge="1" parent="1">
          <mxGeometry width="100" height="100" relative="1" as="geometry">
            <mxPoint x="290" y="300" as="sourcePoint" />
            <mxPoint x="409.4599999999999" y="299.78" as="targetPoint" />
            <Array as="points">
              <mxPoint x="240" y="410" />
              <mxPoint x="380" y="330" />
            </Array>
          </mxGeometry>
        </mxCell>
        <mxCell id="C2uQ8t0dIJBT7GL5n73J-140" value="melakukan" style="edgeLabel;html=1;align=center;verticalAlign=middle;resizable=0;points=[];" connectable="0" vertex="1" parent="C-vyLk0tnHw3VtMMgP7b-12">
          <mxGeometry x="-0.0591" y="-1" relative="1" as="geometry">
            <mxPoint as="offset" />
          </mxGeometry>
        </mxCell>
        <mxCell id="C-vyLk0tnHw3VtMMgP7b-23" value="MAHASISWA" style="shape=table;startSize=30;container=1;collapsible=1;childLayout=tableLayout;fixedRows=1;rowLines=0;fontStyle=1;align=center;resizeLast=1;" vertex="1" parent="1">
          <mxGeometry x="40" y="187" width="250" height="210" as="geometry" />
        </mxCell>
        <mxCell id="C-vyLk0tnHw3VtMMgP7b-24" value="" style="shape=partialRectangle;collapsible=0;dropTarget=0;pointerEvents=0;fillColor=none;points=[[0,0.5],[1,0.5]];portConstraint=eastwest;top=0;left=0;right=0;bottom=1;" vertex="1" parent="C-vyLk0tnHw3VtMMgP7b-23">
          <mxGeometry y="30" width="250" height="30" as="geometry" />
        </mxCell>
        <mxCell id="C-vyLk0tnHw3VtMMgP7b-25" value="int" style="shape=partialRectangle;overflow=hidden;connectable=0;fillColor=none;top=0;left=0;bottom=0;right=0;fontStyle=0;" vertex="1" parent="C-vyLk0tnHw3VtMMgP7b-24">
          <mxGeometry width="40" height="30" as="geometry">
            <mxRectangle width="40" height="30" as="alternateBounds" />
          </mxGeometry>
        </mxCell>
        <mxCell id="C-vyLk0tnHw3VtMMgP7b-26" value="ID_Mahasiswa" style="shape=partialRectangle;overflow=hidden;connectable=0;fillColor=none;top=0;left=0;bottom=0;right=0;align=left;spacingLeft=6;fontStyle=0;" vertex="1" parent="C-vyLk0tnHw3VtMMgP7b-24">
          <mxGeometry x="40" width="210" height="30" as="geometry">
            <mxRectangle width="210" height="30" as="alternateBounds" />
          </mxGeometry>
        </mxCell>
        <mxCell id="C-vyLk0tnHw3VtMMgP7b-27" value="" style="shape=partialRectangle;collapsible=0;dropTarget=0;pointerEvents=0;fillColor=none;points=[[0,0.5],[1,0.5]];portConstraint=eastwest;top=0;left=0;right=0;bottom=0;" vertex="1" parent="C-vyLk0tnHw3VtMMgP7b-23">
          <mxGeometry y="60" width="250" height="30" as="geometry" />
        </mxCell>
        <mxCell id="C-vyLk0tnHw3VtMMgP7b-28" value="string" style="shape=partialRectangle;overflow=hidden;connectable=0;fillColor=none;top=0;left=0;bottom=0;right=0;" vertex="1" parent="C-vyLk0tnHw3VtMMgP7b-27">
          <mxGeometry width="40" height="30" as="geometry">
            <mxRectangle width="40" height="30" as="alternateBounds" />
          </mxGeometry>
        </mxCell>
        <mxCell id="C-vyLk0tnHw3VtMMgP7b-29" value="Nama" style="shape=partialRectangle;overflow=hidden;connectable=0;fillColor=none;top=0;left=0;bottom=0;right=0;align=left;spacingLeft=6;" vertex="1" parent="C-vyLk0tnHw3VtMMgP7b-27">
          <mxGeometry x="40" width="210" height="30" as="geometry">
            <mxRectangle width="210" height="30" as="alternateBounds" />
          </mxGeometry>
        </mxCell>
        <mxCell id="C2uQ8t0dIJBT7GL5n73J-16" value="" style="endArrow=none;html=1;rounded=0;entryX=0.998;entryY=1;entryDx=0;entryDy=0;entryPerimeter=0;" edge="1" parent="C-vyLk0tnHw3VtMMgP7b-23" target="C-vyLk0tnHw3VtMMgP7b-27">
          <mxGeometry width="50" height="50" relative="1" as="geometry">
            <mxPoint y="90" as="sourcePoint" />
            <mxPoint x="130" y="50" as="targetPoint" />
          </mxGeometry>
        </mxCell>
        <mxCell id="C2uQ8t0dIJBT7GL5n73J-9" value="PK" style="shape=partialRectangle;overflow=hidden;connectable=0;fillColor=none;top=0;left=0;bottom=0;right=0;" vertex="1" parent="1">
          <mxGeometry x="250" y="217" width="40" height="30" as="geometry">
            <mxRectangle width="40" height="30" as="alternateBounds" />
          </mxGeometry>
        </mxCell>
        <mxCell id="C2uQ8t0dIJBT7GL5n73J-14" value="" style="endArrow=none;html=1;rounded=0;" edge="1" parent="1">
          <mxGeometry width="50" height="50" relative="1" as="geometry">
            <mxPoint x="250" y="397" as="sourcePoint" />
            <mxPoint x="250" y="217" as="targetPoint" />
          </mxGeometry>
        </mxCell>
        <mxCell id="C2uQ8t0dIJBT7GL5n73J-15" value="" style="endArrow=none;html=1;rounded=0;entryX=0.16;entryY=0.999;entryDx=0;entryDy=0;entryPerimeter=0;" edge="1" parent="1" target="C-vyLk0tnHw3VtMMgP7b-27">
          <mxGeometry width="50" height="50" relative="1" as="geometry">
            <mxPoint x="80" y="397" as="sourcePoint" />
            <mxPoint x="210" y="227" as="targetPoint" />
          </mxGeometry>
        </mxCell>
        <mxCell id="C2uQ8t0dIJBT7GL5n73J-17" value="" style="endArrow=none;html=1;rounded=0;entryX=0.998;entryY=1;entryDx=0;entryDy=0;entryPerimeter=0;" edge="1" parent="1">
          <mxGeometry width="50" height="50" relative="1" as="geometry">
            <mxPoint x="40" y="307" as="sourcePoint" />
            <mxPoint x="290" y="307" as="targetPoint" />
          </mxGeometry>
        </mxCell>
        <mxCell id="C2uQ8t0dIJBT7GL5n73J-18" value="" style="endArrow=none;html=1;rounded=0;entryX=0.998;entryY=1;entryDx=0;entryDy=0;entryPerimeter=0;" edge="1" parent="1">
          <mxGeometry width="50" height="50" relative="1" as="geometry">
            <mxPoint x="40" y="337" as="sourcePoint" />
            <mxPoint x="290" y="337" as="targetPoint" />
          </mxGeometry>
        </mxCell>
        <mxCell id="C2uQ8t0dIJBT7GL5n73J-19" value="" style="endArrow=none;html=1;rounded=0;entryX=0.998;entryY=1;entryDx=0;entryDy=0;entryPerimeter=0;" edge="1" parent="1">
          <mxGeometry width="50" height="50" relative="1" as="geometry">
            <mxPoint x="40" y="367" as="sourcePoint" />
            <mxPoint x="290" y="367" as="targetPoint" />
          </mxGeometry>
        </mxCell>
        <mxCell id="C2uQ8t0dIJBT7GL5n73J-22" value="date" style="shape=partialRectangle;overflow=hidden;connectable=0;fillColor=none;top=0;left=0;bottom=0;right=0;" vertex="1" parent="1">
          <mxGeometry x="40" y="277" width="40" height="30" as="geometry">
            <mxRectangle width="40" height="30" as="alternateBounds" />
          </mxGeometry>
        </mxCell>
        <mxCell id="C2uQ8t0dIJBT7GL5n73J-23" value="string" style="shape=partialRectangle;overflow=hidden;connectable=0;fillColor=none;top=0;left=0;bottom=0;right=0;" vertex="1" parent="1">
          <mxGeometry x="40" y="307" width="40" height="30" as="geometry">
            <mxRectangle width="40" height="30" as="alternateBounds" />
          </mxGeometry>
        </mxCell>
        <mxCell id="C2uQ8t0dIJBT7GL5n73J-24" value="string" style="shape=partialRectangle;overflow=hidden;connectable=0;fillColor=none;top=0;left=0;bottom=0;right=0;" vertex="1" parent="1">
          <mxGeometry x="40" y="337" width="40" height="30" as="geometry">
            <mxRectangle width="40" height="30" as="alternateBounds" />
          </mxGeometry>
        </mxCell>
        <mxCell id="C2uQ8t0dIJBT7GL5n73J-25" value="string" style="shape=partialRectangle;overflow=hidden;connectable=0;fillColor=none;top=0;left=0;bottom=0;right=0;" vertex="1" parent="1">
          <mxGeometry x="40" y="367" width="40" height="30" as="geometry">
            <mxRectangle width="40" height="30" as="alternateBounds" />
          </mxGeometry>
        </mxCell>
        <mxCell id="C2uQ8t0dIJBT7GL5n73J-27" value="Tanggal_Lahir" style="shape=partialRectangle;overflow=hidden;connectable=0;fillColor=none;top=0;left=0;bottom=0;right=0;align=left;spacingLeft=6;" vertex="1" parent="1">
          <mxGeometry x="80" y="277" width="210" height="30" as="geometry">
            <mxRectangle width="210" height="30" as="alternateBounds" />
          </mxGeometry>
        </mxCell>
        <mxCell id="C2uQ8t0dIJBT7GL5n73J-28" value="Alamat" style="shape=partialRectangle;overflow=hidden;connectable=0;fillColor=none;top=0;left=0;bottom=0;right=0;align=left;spacingLeft=6;" vertex="1" parent="1">
          <mxGeometry x="80" y="307" width="210" height="30" as="geometry">
            <mxRectangle width="210" height="30" as="alternateBounds" />
          </mxGeometry>
        </mxCell>
        <mxCell id="C2uQ8t0dIJBT7GL5n73J-29" value="Email" style="shape=partialRectangle;overflow=hidden;connectable=0;fillColor=none;top=0;left=0;bottom=0;right=0;align=left;spacingLeft=6;" vertex="1" parent="1">
          <mxGeometry x="80" y="337" width="210" height="30" as="geometry">
            <mxRectangle width="210" height="30" as="alternateBounds" />
          </mxGeometry>
        </mxCell>
        <mxCell id="C2uQ8t0dIJBT7GL5n73J-30" value="No_Telepon" style="shape=partialRectangle;overflow=hidden;connectable=0;fillColor=none;top=0;left=0;bottom=0;right=0;align=left;spacingLeft=6;" vertex="1" parent="1">
          <mxGeometry x="80" y="367" width="210" height="30" as="geometry">
            <mxRectangle width="210" height="30" as="alternateBounds" />
          </mxGeometry>
        </mxCell>
        <mxCell id="C2uQ8t0dIJBT7GL5n73J-74" value="PENDAFTARAN" style="shape=table;startSize=30;container=1;collapsible=1;childLayout=tableLayout;fixedRows=1;rowLines=0;fontStyle=1;align=center;resizeLast=1;" vertex="1" parent="1">
          <mxGeometry x="410" y="198" width="250" height="180" as="geometry" />
        </mxCell>
        <mxCell id="C2uQ8t0dIJBT7GL5n73J-75" value="" style="shape=partialRectangle;collapsible=0;dropTarget=0;pointerEvents=0;fillColor=none;points=[[0,0.5],[1,0.5]];portConstraint=eastwest;top=0;left=0;right=0;bottom=1;" vertex="1" parent="C2uQ8t0dIJBT7GL5n73J-74">
          <mxGeometry y="30" width="250" height="30" as="geometry" />
        </mxCell>
        <mxCell id="C2uQ8t0dIJBT7GL5n73J-76" value="int" style="shape=partialRectangle;overflow=hidden;connectable=0;fillColor=none;top=0;left=0;bottom=0;right=0;fontStyle=0;" vertex="1" parent="C2uQ8t0dIJBT7GL5n73J-75">
          <mxGeometry width="40" height="30" as="geometry">
            <mxRectangle width="40" height="30" as="alternateBounds" />
          </mxGeometry>
        </mxCell>
        <mxCell id="C2uQ8t0dIJBT7GL5n73J-77" value="ID_Pendaftaran" style="shape=partialRectangle;overflow=hidden;connectable=0;fillColor=none;top=0;left=0;bottom=0;right=0;align=left;spacingLeft=6;fontStyle=0;" vertex="1" parent="C2uQ8t0dIJBT7GL5n73J-75">
          <mxGeometry x="40" width="210" height="30" as="geometry">
            <mxRectangle width="210" height="30" as="alternateBounds" />
          </mxGeometry>
        </mxCell>
        <mxCell id="C2uQ8t0dIJBT7GL5n73J-78" value="" style="shape=partialRectangle;collapsible=0;dropTarget=0;pointerEvents=0;fillColor=none;points=[[0,0.5],[1,0.5]];portConstraint=eastwest;top=0;left=0;right=0;bottom=0;" vertex="1" parent="C2uQ8t0dIJBT7GL5n73J-74">
          <mxGeometry y="60" width="250" height="30" as="geometry" />
        </mxCell>
        <mxCell id="C2uQ8t0dIJBT7GL5n73J-79" value="date" style="shape=partialRectangle;overflow=hidden;connectable=0;fillColor=none;top=0;left=0;bottom=0;right=0;" vertex="1" parent="C2uQ8t0dIJBT7GL5n73J-78">
          <mxGeometry width="40" height="30" as="geometry">
            <mxRectangle width="40" height="30" as="alternateBounds" />
          </mxGeometry>
        </mxCell>
        <mxCell id="C2uQ8t0dIJBT7GL5n73J-80" value="Tanggal_Pendaftaran" style="shape=partialRectangle;overflow=hidden;connectable=0;fillColor=none;top=0;left=0;bottom=0;right=0;align=left;spacingLeft=6;" vertex="1" parent="C2uQ8t0dIJBT7GL5n73J-78">
          <mxGeometry x="40" width="210" height="30" as="geometry">
            <mxRectangle width="210" height="30" as="alternateBounds" />
          </mxGeometry>
        </mxCell>
        <mxCell id="C2uQ8t0dIJBT7GL5n73J-81" value="" style="endArrow=none;html=1;rounded=0;entryX=0.998;entryY=1;entryDx=0;entryDy=0;entryPerimeter=0;" edge="1" parent="C2uQ8t0dIJBT7GL5n73J-74" target="C2uQ8t0dIJBT7GL5n73J-78">
          <mxGeometry width="50" height="50" relative="1" as="geometry">
            <mxPoint y="90" as="sourcePoint" />
            <mxPoint x="130" y="50" as="targetPoint" />
          </mxGeometry>
        </mxCell>
        <mxCell id="C2uQ8t0dIJBT7GL5n73J-82" value="PK" style="shape=partialRectangle;overflow=hidden;connectable=0;fillColor=none;top=0;left=0;bottom=0;right=0;" vertex="1" parent="1">
          <mxGeometry x="620" y="228" width="40" height="30" as="geometry">
            <mxRectangle width="40" height="30" as="alternateBounds" />
          </mxGeometry>
        </mxCell>
        <mxCell id="C2uQ8t0dIJBT7GL5n73J-83" value="" style="endArrow=none;html=1;rounded=0;" edge="1" parent="1">
          <mxGeometry width="50" height="50" relative="1" as="geometry">
            <mxPoint x="620" y="378" as="sourcePoint" />
            <mxPoint x="620" y="228" as="targetPoint" />
          </mxGeometry>
        </mxCell>
        <mxCell id="C2uQ8t0dIJBT7GL5n73J-85" value="" style="endArrow=none;html=1;rounded=0;entryX=0.998;entryY=1;entryDx=0;entryDy=0;entryPerimeter=0;" edge="1" parent="1">
          <mxGeometry width="50" height="50" relative="1" as="geometry">
            <mxPoint x="410" y="318" as="sourcePoint" />
            <mxPoint x="660" y="318" as="targetPoint" />
          </mxGeometry>
        </mxCell>
        <mxCell id="C2uQ8t0dIJBT7GL5n73J-86" value="" style="endArrow=none;html=1;rounded=0;entryX=0.998;entryY=1;entryDx=0;entryDy=0;entryPerimeter=0;" edge="1" parent="1">
          <mxGeometry width="50" height="50" relative="1" as="geometry">
            <mxPoint x="410" y="348" as="sourcePoint" />
            <mxPoint x="660" y="348" as="targetPoint" />
          </mxGeometry>
        </mxCell>
        <mxCell id="C2uQ8t0dIJBT7GL5n73J-88" value="string" style="shape=partialRectangle;overflow=hidden;connectable=0;fillColor=none;top=0;left=0;bottom=0;right=0;" vertex="1" parent="1">
          <mxGeometry x="410" y="288" width="40" height="30" as="geometry">
            <mxRectangle width="40" height="30" as="alternateBounds" />
          </mxGeometry>
        </mxCell>
        <mxCell id="C2uQ8t0dIJBT7GL5n73J-89" value="string" style="shape=partialRectangle;overflow=hidden;connectable=0;fillColor=none;top=0;left=0;bottom=0;right=0;" vertex="1" parent="1">
          <mxGeometry x="410" y="318" width="40" height="30" as="geometry">
            <mxRectangle width="40" height="30" as="alternateBounds" />
          </mxGeometry>
        </mxCell>
        <mxCell id="C2uQ8t0dIJBT7GL5n73J-90" value="int" style="shape=partialRectangle;overflow=hidden;connectable=0;fillColor=none;top=0;left=0;bottom=0;right=0;" vertex="1" parent="1">
          <mxGeometry x="410" y="348" width="40" height="30" as="geometry">
            <mxRectangle width="40" height="30" as="alternateBounds" />
          </mxGeometry>
        </mxCell>
        <mxCell id="C2uQ8t0dIJBT7GL5n73J-92" value="Status_Pendaftaran" style="shape=partialRectangle;overflow=hidden;connectable=0;fillColor=none;top=0;left=0;bottom=0;right=0;align=left;spacingLeft=6;" vertex="1" parent="1">
          <mxGeometry x="450" y="288" width="210" height="30" as="geometry">
            <mxRectangle width="210" height="30" as="alternateBounds" />
          </mxGeometry>
        </mxCell>
        <mxCell id="C2uQ8t0dIJBT7GL5n73J-93" value="Metode_Pendaftaran" style="shape=partialRectangle;overflow=hidden;connectable=0;fillColor=none;top=0;left=0;bottom=0;right=0;align=left;spacingLeft=6;" vertex="1" parent="1">
          <mxGeometry x="450" y="318" width="210" height="30" as="geometry">
            <mxRectangle width="210" height="30" as="alternateBounds" />
          </mxGeometry>
        </mxCell>
        <mxCell id="C2uQ8t0dIJBT7GL5n73J-94" value="ID_Mahasiswa" style="shape=partialRectangle;overflow=hidden;connectable=0;fillColor=none;top=0;left=0;bottom=0;right=0;align=left;spacingLeft=6;" vertex="1" parent="1">
          <mxGeometry x="450" y="348" width="210" height="30" as="geometry">
            <mxRectangle width="210" height="30" as="alternateBounds" />
          </mxGeometry>
        </mxCell>
        <mxCell id="C2uQ8t0dIJBT7GL5n73J-96" value="" style="endArrow=none;html=1;rounded=0;" edge="1" parent="1">
          <mxGeometry width="50" height="50" relative="1" as="geometry">
            <mxPoint x="450" y="378" as="sourcePoint" />
            <mxPoint x="450" y="288" as="targetPoint" />
          </mxGeometry>
        </mxCell>
        <mxCell id="C2uQ8t0dIJBT7GL5n73J-97" value="FK" style="shape=partialRectangle;overflow=hidden;connectable=0;fillColor=none;top=0;left=0;bottom=0;right=0;" vertex="1" parent="1">
          <mxGeometry x="620" y="348" width="40" height="30" as="geometry">
            <mxRectangle width="40" height="30" as="alternateBounds" />
          </mxGeometry>
        </mxCell>
        <mxCell id="C2uQ8t0dIJBT7GL5n73J-98" value="KELAS" style="shape=table;startSize=30;container=1;collapsible=1;childLayout=tableLayout;fixedRows=1;rowLines=0;fontStyle=1;align=center;resizeLast=1;" vertex="1" parent="1">
          <mxGeometry x="760" y="60" width="250" height="180" as="geometry" />
        </mxCell>
        <mxCell id="C2uQ8t0dIJBT7GL5n73J-99" value="" style="shape=partialRectangle;collapsible=0;dropTarget=0;pointerEvents=0;fillColor=none;points=[[0,0.5],[1,0.5]];portConstraint=eastwest;top=0;left=0;right=0;bottom=1;" vertex="1" parent="C2uQ8t0dIJBT7GL5n73J-98">
          <mxGeometry y="30" width="250" height="30" as="geometry" />
        </mxCell>
        <mxCell id="C2uQ8t0dIJBT7GL5n73J-100" value="int" style="shape=partialRectangle;overflow=hidden;connectable=0;fillColor=none;top=0;left=0;bottom=0;right=0;fontStyle=0;" vertex="1" parent="C2uQ8t0dIJBT7GL5n73J-99">
          <mxGeometry width="40" height="30" as="geometry">
            <mxRectangle width="40" height="30" as="alternateBounds" />
          </mxGeometry>
        </mxCell>
        <mxCell id="C2uQ8t0dIJBT7GL5n73J-101" value="ID_Kelas" style="shape=partialRectangle;overflow=hidden;connectable=0;fillColor=none;top=0;left=0;bottom=0;right=0;align=left;spacingLeft=6;fontStyle=0;" vertex="1" parent="C2uQ8t0dIJBT7GL5n73J-99">
          <mxGeometry x="40" width="210" height="30" as="geometry">
            <mxRectangle width="210" height="30" as="alternateBounds" />
          </mxGeometry>
        </mxCell>
        <mxCell id="C2uQ8t0dIJBT7GL5n73J-102" value="" style="shape=partialRectangle;collapsible=0;dropTarget=0;pointerEvents=0;fillColor=none;points=[[0,0.5],[1,0.5]];portConstraint=eastwest;top=0;left=0;right=0;bottom=0;" vertex="1" parent="C2uQ8t0dIJBT7GL5n73J-98">
          <mxGeometry y="60" width="250" height="30" as="geometry" />
        </mxCell>
        <mxCell id="C2uQ8t0dIJBT7GL5n73J-103" value="string" style="shape=partialRectangle;overflow=hidden;connectable=0;fillColor=none;top=0;left=0;bottom=0;right=0;" vertex="1" parent="C2uQ8t0dIJBT7GL5n73J-102">
          <mxGeometry width="40" height="30" as="geometry">
            <mxRectangle width="40" height="30" as="alternateBounds" />
          </mxGeometry>
        </mxCell>
        <mxCell id="C2uQ8t0dIJBT7GL5n73J-104" value="Nama_Kelas" style="shape=partialRectangle;overflow=hidden;connectable=0;fillColor=none;top=0;left=0;bottom=0;right=0;align=left;spacingLeft=6;" vertex="1" parent="C2uQ8t0dIJBT7GL5n73J-102">
          <mxGeometry x="40" width="210" height="30" as="geometry">
            <mxRectangle width="210" height="30" as="alternateBounds" />
          </mxGeometry>
        </mxCell>
        <mxCell id="C2uQ8t0dIJBT7GL5n73J-105" value="" style="endArrow=none;html=1;rounded=0;entryX=0.998;entryY=1;entryDx=0;entryDy=0;entryPerimeter=0;" edge="1" parent="C2uQ8t0dIJBT7GL5n73J-98" target="C2uQ8t0dIJBT7GL5n73J-102">
          <mxGeometry width="50" height="50" relative="1" as="geometry">
            <mxPoint y="90" as="sourcePoint" />
            <mxPoint x="130" y="50" as="targetPoint" />
          </mxGeometry>
        </mxCell>
        <mxCell id="C2uQ8t0dIJBT7GL5n73J-106" value="PK" style="shape=partialRectangle;overflow=hidden;connectable=0;fillColor=none;top=0;left=0;bottom=0;right=0;" vertex="1" parent="1">
          <mxGeometry x="970" y="90" width="40" height="30" as="geometry">
            <mxRectangle width="40" height="30" as="alternateBounds" />
          </mxGeometry>
        </mxCell>
        <mxCell id="C2uQ8t0dIJBT7GL5n73J-107" value="" style="endArrow=none;html=1;rounded=0;" edge="1" parent="1">
          <mxGeometry width="50" height="50" relative="1" as="geometry">
            <mxPoint x="970" y="240" as="sourcePoint" />
            <mxPoint x="970" y="90" as="targetPoint" />
          </mxGeometry>
        </mxCell>
        <mxCell id="C2uQ8t0dIJBT7GL5n73J-108" value="" style="endArrow=none;html=1;rounded=0;entryX=0.998;entryY=1;entryDx=0;entryDy=0;entryPerimeter=0;" edge="1" parent="1">
          <mxGeometry width="50" height="50" relative="1" as="geometry">
            <mxPoint x="760" y="180" as="sourcePoint" />
            <mxPoint x="1010" y="180" as="targetPoint" />
          </mxGeometry>
        </mxCell>
        <mxCell id="C2uQ8t0dIJBT7GL5n73J-109" value="" style="endArrow=none;html=1;rounded=0;entryX=0.998;entryY=1;entryDx=0;entryDy=0;entryPerimeter=0;" edge="1" parent="1">
          <mxGeometry width="50" height="50" relative="1" as="geometry">
            <mxPoint x="760" y="210" as="sourcePoint" />
            <mxPoint x="1010" y="210" as="targetPoint" />
          </mxGeometry>
        </mxCell>
        <mxCell id="C2uQ8t0dIJBT7GL5n73J-110" value="int" style="shape=partialRectangle;overflow=hidden;connectable=0;fillColor=none;top=0;left=0;bottom=0;right=0;" vertex="1" parent="1">
          <mxGeometry x="760" y="150" width="40" height="30" as="geometry">
            <mxRectangle width="40" height="30" as="alternateBounds" />
          </mxGeometry>
        </mxCell>
        <mxCell id="C2uQ8t0dIJBT7GL5n73J-111" value="string" style="shape=partialRectangle;overflow=hidden;connectable=0;fillColor=none;top=0;left=0;bottom=0;right=0;" vertex="1" parent="1">
          <mxGeometry x="760" y="180" width="40" height="30" as="geometry">
            <mxRectangle width="40" height="30" as="alternateBounds" />
          </mxGeometry>
        </mxCell>
        <mxCell id="C2uQ8t0dIJBT7GL5n73J-112" value="int" style="shape=partialRectangle;overflow=hidden;connectable=0;fillColor=none;top=0;left=0;bottom=0;right=0;" vertex="1" parent="1">
          <mxGeometry x="760" y="210" width="40" height="30" as="geometry">
            <mxRectangle width="40" height="30" as="alternateBounds" />
          </mxGeometry>
        </mxCell>
        <mxCell id="C2uQ8t0dIJBT7GL5n73J-113" value="Kuota" style="shape=partialRectangle;overflow=hidden;connectable=0;fillColor=none;top=0;left=0;bottom=0;right=0;align=left;spacingLeft=6;" vertex="1" parent="1">
          <mxGeometry x="800" y="150" width="210" height="30" as="geometry">
            <mxRectangle width="210" height="30" as="alternateBounds" />
          </mxGeometry>
        </mxCell>
        <mxCell id="C2uQ8t0dIJBT7GL5n73J-114" value="Semester" style="shape=partialRectangle;overflow=hidden;connectable=0;fillColor=none;top=0;left=0;bottom=0;right=0;align=left;spacingLeft=6;" vertex="1" parent="1">
          <mxGeometry x="800" y="180" width="210" height="30" as="geometry">
            <mxRectangle width="210" height="30" as="alternateBounds" />
          </mxGeometry>
        </mxCell>
        <mxCell id="C2uQ8t0dIJBT7GL5n73J-115" value="ID_Dosen" style="shape=partialRectangle;overflow=hidden;connectable=0;fillColor=none;top=0;left=0;bottom=0;right=0;align=left;spacingLeft=6;" vertex="1" parent="1">
          <mxGeometry x="800" y="210" width="210" height="30" as="geometry">
            <mxRectangle width="210" height="30" as="alternateBounds" />
          </mxGeometry>
        </mxCell>
        <mxCell id="C2uQ8t0dIJBT7GL5n73J-116" value="" style="endArrow=none;html=1;rounded=0;" edge="1" parent="1">
          <mxGeometry width="50" height="50" relative="1" as="geometry">
            <mxPoint x="800" y="240" as="sourcePoint" />
            <mxPoint x="800" y="150" as="targetPoint" />
          </mxGeometry>
        </mxCell>
        <mxCell id="C2uQ8t0dIJBT7GL5n73J-117" value="FK" style="shape=partialRectangle;overflow=hidden;connectable=0;fillColor=none;top=0;left=0;bottom=0;right=0;" vertex="1" parent="1">
          <mxGeometry x="970" y="210" width="40" height="30" as="geometry">
            <mxRectangle width="40" height="30" as="alternateBounds" />
          </mxGeometry>
        </mxCell>
        <mxCell id="C2uQ8t0dIJBT7GL5n73J-118" value="PEMBAYARAN" style="shape=table;startSize=30;container=1;collapsible=1;childLayout=tableLayout;fixedRows=1;rowLines=0;fontStyle=1;align=center;resizeLast=1;" vertex="1" parent="1">
          <mxGeometry x="760" y="350" width="250" height="180" as="geometry" />
        </mxCell>
        <mxCell id="C2uQ8t0dIJBT7GL5n73J-119" value="" style="shape=partialRectangle;collapsible=0;dropTarget=0;pointerEvents=0;fillColor=none;points=[[0,0.5],[1,0.5]];portConstraint=eastwest;top=0;left=0;right=0;bottom=1;" vertex="1" parent="C2uQ8t0dIJBT7GL5n73J-118">
          <mxGeometry y="30" width="250" height="30" as="geometry" />
        </mxCell>
        <mxCell id="C2uQ8t0dIJBT7GL5n73J-120" value="int" style="shape=partialRectangle;overflow=hidden;connectable=0;fillColor=none;top=0;left=0;bottom=0;right=0;fontStyle=0;" vertex="1" parent="C2uQ8t0dIJBT7GL5n73J-119">
          <mxGeometry width="40" height="30" as="geometry">
            <mxRectangle width="40" height="30" as="alternateBounds" />
          </mxGeometry>
        </mxCell>
        <mxCell id="C2uQ8t0dIJBT7GL5n73J-121" value="ID_Pendaftaran" style="shape=partialRectangle;overflow=hidden;connectable=0;fillColor=none;top=0;left=0;bottom=0;right=0;align=left;spacingLeft=6;fontStyle=0;" vertex="1" parent="C2uQ8t0dIJBT7GL5n73J-119">
          <mxGeometry x="40" width="210" height="30" as="geometry">
            <mxRectangle width="210" height="30" as="alternateBounds" />
          </mxGeometry>
        </mxCell>
        <mxCell id="C2uQ8t0dIJBT7GL5n73J-122" value="" style="shape=partialRectangle;collapsible=0;dropTarget=0;pointerEvents=0;fillColor=none;points=[[0,0.5],[1,0.5]];portConstraint=eastwest;top=0;left=0;right=0;bottom=0;" vertex="1" parent="C2uQ8t0dIJBT7GL5n73J-118">
          <mxGeometry y="60" width="250" height="30" as="geometry" />
        </mxCell>
        <mxCell id="C2uQ8t0dIJBT7GL5n73J-123" value="int" style="shape=partialRectangle;overflow=hidden;connectable=0;fillColor=none;top=0;left=0;bottom=0;right=0;" vertex="1" parent="C2uQ8t0dIJBT7GL5n73J-122">
          <mxGeometry width="40" height="30" as="geometry">
            <mxRectangle width="40" height="30" as="alternateBounds" />
          </mxGeometry>
        </mxCell>
        <mxCell id="C2uQ8t0dIJBT7GL5n73J-124" value="ID_Pendaftaran" style="shape=partialRectangle;overflow=hidden;connectable=0;fillColor=none;top=0;left=0;bottom=0;right=0;align=left;spacingLeft=6;" vertex="1" parent="C2uQ8t0dIJBT7GL5n73J-122">
          <mxGeometry x="40" width="210" height="30" as="geometry">
            <mxRectangle width="210" height="30" as="alternateBounds" />
          </mxGeometry>
        </mxCell>
        <mxCell id="C2uQ8t0dIJBT7GL5n73J-125" value="" style="endArrow=none;html=1;rounded=0;entryX=0.998;entryY=1;entryDx=0;entryDy=0;entryPerimeter=0;" edge="1" parent="C2uQ8t0dIJBT7GL5n73J-118" target="C2uQ8t0dIJBT7GL5n73J-122">
          <mxGeometry width="50" height="50" relative="1" as="geometry">
            <mxPoint y="90" as="sourcePoint" />
            <mxPoint x="130" y="50" as="targetPoint" />
          </mxGeometry>
        </mxCell>
        <mxCell id="C2uQ8t0dIJBT7GL5n73J-126" value="PK" style="shape=partialRectangle;overflow=hidden;connectable=0;fillColor=none;top=0;left=0;bottom=0;right=0;" vertex="1" parent="1">
          <mxGeometry x="970" y="380" width="40" height="30" as="geometry">
            <mxRectangle width="40" height="30" as="alternateBounds" />
          </mxGeometry>
        </mxCell>
        <mxCell id="C2uQ8t0dIJBT7GL5n73J-127" value="" style="endArrow=none;html=1;rounded=0;" edge="1" parent="1">
          <mxGeometry width="50" height="50" relative="1" as="geometry">
            <mxPoint x="970" y="530" as="sourcePoint" />
            <mxPoint x="970" y="380" as="targetPoint" />
          </mxGeometry>
        </mxCell>
        <mxCell id="C2uQ8t0dIJBT7GL5n73J-128" value="" style="endArrow=none;html=1;rounded=0;entryX=0.998;entryY=1;entryDx=0;entryDy=0;entryPerimeter=0;" edge="1" parent="1">
          <mxGeometry width="50" height="50" relative="1" as="geometry">
            <mxPoint x="760" y="470" as="sourcePoint" />
            <mxPoint x="1010" y="470" as="targetPoint" />
          </mxGeometry>
        </mxCell>
        <mxCell id="C2uQ8t0dIJBT7GL5n73J-129" value="" style="endArrow=none;html=1;rounded=0;entryX=0.998;entryY=1;entryDx=0;entryDy=0;entryPerimeter=0;" edge="1" parent="1">
          <mxGeometry width="50" height="50" relative="1" as="geometry">
            <mxPoint x="760" y="500" as="sourcePoint" />
            <mxPoint x="1010" y="500" as="targetPoint" />
          </mxGeometry>
        </mxCell>
        <mxCell id="C2uQ8t0dIJBT7GL5n73J-130" value="date" style="shape=partialRectangle;overflow=hidden;connectable=0;fillColor=none;top=0;left=0;bottom=0;right=0;" vertex="1" parent="1">
          <mxGeometry x="760" y="440" width="40" height="30" as="geometry">
            <mxRectangle width="40" height="30" as="alternateBounds" />
          </mxGeometry>
        </mxCell>
        <mxCell id="C2uQ8t0dIJBT7GL5n73J-131" value="float" style="shape=partialRectangle;overflow=hidden;connectable=0;fillColor=none;top=0;left=0;bottom=0;right=0;" vertex="1" parent="1">
          <mxGeometry x="760" y="470" width="40" height="30" as="geometry">
            <mxRectangle width="40" height="30" as="alternateBounds" />
          </mxGeometry>
        </mxCell>
        <mxCell id="C2uQ8t0dIJBT7GL5n73J-132" value="string" style="shape=partialRectangle;overflow=hidden;connectable=0;fillColor=none;top=0;left=0;bottom=0;right=0;" vertex="1" parent="1">
          <mxGeometry x="760" y="500" width="40" height="30" as="geometry">
            <mxRectangle width="40" height="30" as="alternateBounds" />
          </mxGeometry>
        </mxCell>
        <mxCell id="C2uQ8t0dIJBT7GL5n73J-133" value="Tanggal_Pembayaran" style="shape=partialRectangle;overflow=hidden;connectable=0;fillColor=none;top=0;left=0;bottom=0;right=0;align=left;spacingLeft=6;" vertex="1" parent="1">
          <mxGeometry x="800" y="440" width="210" height="30" as="geometry">
            <mxRectangle width="210" height="30" as="alternateBounds" />
          </mxGeometry>
        </mxCell>
        <mxCell id="C2uQ8t0dIJBT7GL5n73J-134" value="Jumlah_Pembayaran" style="shape=partialRectangle;overflow=hidden;connectable=0;fillColor=none;top=0;left=0;bottom=0;right=0;align=left;spacingLeft=6;" vertex="1" parent="1">
          <mxGeometry x="800" y="470" width="210" height="30" as="geometry">
            <mxRectangle width="210" height="30" as="alternateBounds" />
          </mxGeometry>
        </mxCell>
        <mxCell id="C2uQ8t0dIJBT7GL5n73J-135" value="Status_Pembayaran" style="shape=partialRectangle;overflow=hidden;connectable=0;fillColor=none;top=0;left=0;bottom=0;right=0;align=left;spacingLeft=6;" vertex="1" parent="1">
          <mxGeometry x="800" y="500" width="210" height="30" as="geometry">
            <mxRectangle width="210" height="30" as="alternateBounds" />
          </mxGeometry>
        </mxCell>
        <mxCell id="C2uQ8t0dIJBT7GL5n73J-136" value="" style="endArrow=none;html=1;rounded=0;" edge="1" parent="1">
          <mxGeometry width="50" height="50" relative="1" as="geometry">
            <mxPoint x="800" y="530" as="sourcePoint" />
            <mxPoint x="800" y="440" as="targetPoint" />
          </mxGeometry>
        </mxCell>
        <mxCell id="C2uQ8t0dIJBT7GL5n73J-137" value="FK" style="shape=partialRectangle;overflow=hidden;connectable=0;fillColor=none;top=0;left=0;bottom=0;right=0;" vertex="1" parent="1">
          <mxGeometry x="970" y="410" width="40" height="30" as="geometry">
            <mxRectangle width="40" height="30" as="alternateBounds" />
          </mxGeometry>
        </mxCell>
        <mxCell id="C2uQ8t0dIJBT7GL5n73J-138" value="" style="edgeStyle=entityRelationEdgeStyle;endArrow=ERzeroToMany;startArrow=ERone;endFill=1;startFill=0;entryX=1.003;entryY=0.089;entryDx=0;entryDy=0;entryPerimeter=0;exitX=0;exitY=0.5;exitDx=0;exitDy=0;" edge="1" parent="1" source="C2uQ8t0dIJBT7GL5n73J-102" target="C2uQ8t0dIJBT7GL5n73J-74">
          <mxGeometry width="100" height="100" relative="1" as="geometry">
            <mxPoint x="670" y="288.22" as="sourcePoint" />
            <mxPoint x="789.4599999999999" y="288" as="targetPoint" />
            <Array as="points">
              <mxPoint x="620" y="398.22" />
              <mxPoint x="760" y="318.22" />
            </Array>
          </mxGeometry>
        </mxCell>
        <mxCell id="C2uQ8t0dIJBT7GL5n73J-141" value="mendaftarkan_ke" style="edgeLabel;html=1;align=center;verticalAlign=middle;resizable=0;points=[];" connectable="0" vertex="1" parent="C2uQ8t0dIJBT7GL5n73J-138">
          <mxGeometry x="0.024" y="1" relative="1" as="geometry">
            <mxPoint as="offset" />
          </mxGeometry>
        </mxCell>
        <mxCell id="C2uQ8t0dIJBT7GL5n73J-139" value="" style="edgeStyle=entityRelationEdgeStyle;endArrow=ERzeroToMany;startArrow=ERone;endFill=1;startFill=0;exitX=0;exitY=0.5;exitDx=0;exitDy=0;entryX=1;entryY=1;entryDx=0;entryDy=0;" edge="1" parent="1" source="C2uQ8t0dIJBT7GL5n73J-122" target="C2uQ8t0dIJBT7GL5n73J-74">
          <mxGeometry width="100" height="100" relative="1" as="geometry">
            <mxPoint x="760" y="427.5" as="sourcePoint" />
            <mxPoint x="660" y="362.5" as="targetPoint" />
            <Array as="points">
              <mxPoint x="630" y="410.72" />
              <mxPoint x="770" y="330.72" />
            </Array>
          </mxGeometry>
        </mxCell>
        <mxCell id="C2uQ8t0dIJBT7GL5n73J-142" value="menghasilkan" style="edgeLabel;html=1;align=center;verticalAlign=middle;resizable=0;points=[];" connectable="0" vertex="1" parent="C2uQ8t0dIJBT7GL5n73J-139">
          <mxGeometry x="-0.0676" y="2" relative="1" as="geometry">
            <mxPoint as="offset" />
          </mxGeometry>
        </mxCell>
        <mxCell id="C2uQ8t0dIJBT7GL5n73J-143" value="DOSEN" style="shape=table;startSize=30;container=1;collapsible=1;childLayout=tableLayout;fixedRows=1;rowLines=0;fontStyle=1;align=center;resizeLast=1;" vertex="1" parent="1">
          <mxGeometry x="1140" y="78" width="250" height="151" as="geometry" />
        </mxCell>
        <mxCell id="C2uQ8t0dIJBT7GL5n73J-144" value="" style="shape=partialRectangle;collapsible=0;dropTarget=0;pointerEvents=0;fillColor=none;points=[[0,0.5],[1,0.5]];portConstraint=eastwest;top=0;left=0;right=0;bottom=1;" vertex="1" parent="C2uQ8t0dIJBT7GL5n73J-143">
          <mxGeometry y="30" width="250" height="30" as="geometry" />
        </mxCell>
        <mxCell id="C2uQ8t0dIJBT7GL5n73J-145" value="int" style="shape=partialRectangle;overflow=hidden;connectable=0;fillColor=none;top=0;left=0;bottom=0;right=0;fontStyle=0;" vertex="1" parent="C2uQ8t0dIJBT7GL5n73J-144">
          <mxGeometry width="40" height="30" as="geometry">
            <mxRectangle width="40" height="30" as="alternateBounds" />
          </mxGeometry>
        </mxCell>
        <mxCell id="C2uQ8t0dIJBT7GL5n73J-146" value="ID_Dosen" style="shape=partialRectangle;overflow=hidden;connectable=0;fillColor=none;top=0;left=0;bottom=0;right=0;align=left;spacingLeft=6;fontStyle=0;" vertex="1" parent="C2uQ8t0dIJBT7GL5n73J-144">
          <mxGeometry x="40" width="210" height="30" as="geometry">
            <mxRectangle width="210" height="30" as="alternateBounds" />
          </mxGeometry>
        </mxCell>
        <mxCell id="C2uQ8t0dIJBT7GL5n73J-147" value="" style="shape=partialRectangle;collapsible=0;dropTarget=0;pointerEvents=0;fillColor=none;points=[[0,0.5],[1,0.5]];portConstraint=eastwest;top=0;left=0;right=0;bottom=0;" vertex="1" parent="C2uQ8t0dIJBT7GL5n73J-143">
          <mxGeometry y="60" width="250" height="30" as="geometry" />
        </mxCell>
        <mxCell id="C2uQ8t0dIJBT7GL5n73J-148" value="string" style="shape=partialRectangle;overflow=hidden;connectable=0;fillColor=none;top=0;left=0;bottom=0;right=0;" vertex="1" parent="C2uQ8t0dIJBT7GL5n73J-147">
          <mxGeometry width="40" height="30" as="geometry">
            <mxRectangle width="40" height="30" as="alternateBounds" />
          </mxGeometry>
        </mxCell>
        <mxCell id="C2uQ8t0dIJBT7GL5n73J-149" value="Nama_Dosen" style="shape=partialRectangle;overflow=hidden;connectable=0;fillColor=none;top=0;left=0;bottom=0;right=0;align=left;spacingLeft=6;" vertex="1" parent="C2uQ8t0dIJBT7GL5n73J-147">
          <mxGeometry x="40" width="210" height="30" as="geometry">
            <mxRectangle width="210" height="30" as="alternateBounds" />
          </mxGeometry>
        </mxCell>
        <mxCell id="C2uQ8t0dIJBT7GL5n73J-150" value="" style="endArrow=none;html=1;rounded=0;entryX=0.998;entryY=1;entryDx=0;entryDy=0;entryPerimeter=0;" edge="1" parent="C2uQ8t0dIJBT7GL5n73J-143" target="C2uQ8t0dIJBT7GL5n73J-147">
          <mxGeometry width="50" height="50" relative="1" as="geometry">
            <mxPoint y="90" as="sourcePoint" />
            <mxPoint x="130" y="50" as="targetPoint" />
          </mxGeometry>
        </mxCell>
        <mxCell id="C2uQ8t0dIJBT7GL5n73J-151" value="PK" style="shape=partialRectangle;overflow=hidden;connectable=0;fillColor=none;top=0;left=0;bottom=0;right=0;" vertex="1" parent="1">
          <mxGeometry x="1350" y="108" width="40" height="30" as="geometry">
            <mxRectangle width="40" height="30" as="alternateBounds" />
          </mxGeometry>
        </mxCell>
        <mxCell id="C2uQ8t0dIJBT7GL5n73J-152" value="" style="endArrow=none;html=1;rounded=0;" edge="1" parent="1">
          <mxGeometry width="50" height="50" relative="1" as="geometry">
            <mxPoint x="1350" y="229" as="sourcePoint" />
            <mxPoint x="1350" y="108" as="targetPoint" />
          </mxGeometry>
        </mxCell>
        <mxCell id="C2uQ8t0dIJBT7GL5n73J-153" value="" style="endArrow=none;html=1;rounded=0;entryX=0.998;entryY=1;entryDx=0;entryDy=0;entryPerimeter=0;" edge="1" parent="1">
          <mxGeometry width="50" height="50" relative="1" as="geometry">
            <mxPoint x="1140" y="198" as="sourcePoint" />
            <mxPoint x="1390" y="198" as="targetPoint" />
          </mxGeometry>
        </mxCell>
        <mxCell id="C2uQ8t0dIJBT7GL5n73J-155" value="string" style="shape=partialRectangle;overflow=hidden;connectable=0;fillColor=none;top=0;left=0;bottom=0;right=0;" vertex="1" parent="1">
          <mxGeometry x="1140" y="168" width="40" height="30" as="geometry">
            <mxRectangle width="40" height="30" as="alternateBounds" />
          </mxGeometry>
        </mxCell>
        <mxCell id="C2uQ8t0dIJBT7GL5n73J-156" value="string" style="shape=partialRectangle;overflow=hidden;connectable=0;fillColor=none;top=0;left=0;bottom=0;right=0;" vertex="1" parent="1">
          <mxGeometry x="1140" y="198" width="40" height="30" as="geometry">
            <mxRectangle width="40" height="30" as="alternateBounds" />
          </mxGeometry>
        </mxCell>
        <mxCell id="C2uQ8t0dIJBT7GL5n73J-158" value="Departemen" style="shape=partialRectangle;overflow=hidden;connectable=0;fillColor=none;top=0;left=0;bottom=0;right=0;align=left;spacingLeft=6;" vertex="1" parent="1">
          <mxGeometry x="1180" y="168" width="210" height="30" as="geometry">
            <mxRectangle width="210" height="30" as="alternateBounds" />
          </mxGeometry>
        </mxCell>
        <mxCell id="C2uQ8t0dIJBT7GL5n73J-159" value="Email" style="shape=partialRectangle;overflow=hidden;connectable=0;fillColor=none;top=0;left=0;bottom=0;right=0;align=left;spacingLeft=6;" vertex="1" parent="1">
          <mxGeometry x="1180" y="198" width="210" height="30" as="geometry">
            <mxRectangle width="210" height="30" as="alternateBounds" />
          </mxGeometry>
        </mxCell>
        <mxCell id="C2uQ8t0dIJBT7GL5n73J-161" value="" style="endArrow=none;html=1;rounded=0;" edge="1" parent="1">
          <mxGeometry width="50" height="50" relative="1" as="geometry">
            <mxPoint x="1180" y="229" as="sourcePoint" />
            <mxPoint x="1180" y="168" as="targetPoint" />
          </mxGeometry>
        </mxCell>
        <mxCell id="C2uQ8t0dIJBT7GL5n73J-163" value="" style="edgeStyle=entityRelationEdgeStyle;endArrow=ERzeroToMany;startArrow=ERone;endFill=1;startFill=0;entryX=-0.009;entryY=0.722;entryDx=0;entryDy=0;entryPerimeter=0;" edge="1" parent="1" target="C2uQ8t0dIJBT7GL5n73J-147">
          <mxGeometry width="100" height="100" relative="1" as="geometry">
            <mxPoint x="1010.370347764757" y="160" as="sourcePoint" />
            <mxPoint x="671" y="224" as="targetPoint" />
            <Array as="points">
              <mxPoint x="630" y="408.22" />
              <mxPoint x="770" y="328.22" />
            </Array>
          </mxGeometry>
        </mxCell>
        <mxCell id="C2uQ8t0dIJBT7GL5n73J-164" value="diajarkan_ke" style="edgeLabel;html=1;align=center;verticalAlign=middle;resizable=0;points=[];" connectable="0" vertex="1" parent="C2uQ8t0dIJBT7GL5n73J-163">
          <mxGeometry x="0.024" y="1" relative="1" as="geometry">
            <mxPoint as="offset" />
          </mxGeometry>
        </mxCell>
        <mxCell id="C2uQ8t0dIJBT7GL5n73J-165" value="DEPARTEMEN" style="shape=table;startSize=30;container=1;collapsible=1;childLayout=tableLayout;fixedRows=1;rowLines=0;fontStyle=1;align=center;resizeLast=1;" vertex="1" parent="1">
          <mxGeometry x="1540" y="117" width="250" height="91" as="geometry" />
        </mxCell>
        <mxCell id="C2uQ8t0dIJBT7GL5n73J-166" value="" style="shape=partialRectangle;collapsible=0;dropTarget=0;pointerEvents=0;fillColor=none;points=[[0,0.5],[1,0.5]];portConstraint=eastwest;top=0;left=0;right=0;bottom=1;" vertex="1" parent="C2uQ8t0dIJBT7GL5n73J-165">
          <mxGeometry y="30" width="250" height="30" as="geometry" />
        </mxCell>
        <mxCell id="C2uQ8t0dIJBT7GL5n73J-167" value="int" style="shape=partialRectangle;overflow=hidden;connectable=0;fillColor=none;top=0;left=0;bottom=0;right=0;fontStyle=0;" vertex="1" parent="C2uQ8t0dIJBT7GL5n73J-166">
          <mxGeometry width="40" height="30" as="geometry">
            <mxRectangle width="40" height="30" as="alternateBounds" />
          </mxGeometry>
        </mxCell>
        <mxCell id="C2uQ8t0dIJBT7GL5n73J-168" value="ID_Departemen" style="shape=partialRectangle;overflow=hidden;connectable=0;fillColor=none;top=0;left=0;bottom=0;right=0;align=left;spacingLeft=6;fontStyle=0;" vertex="1" parent="C2uQ8t0dIJBT7GL5n73J-166">
          <mxGeometry x="40" width="210" height="30" as="geometry">
            <mxRectangle width="210" height="30" as="alternateBounds" />
          </mxGeometry>
        </mxCell>
        <mxCell id="C2uQ8t0dIJBT7GL5n73J-169" value="" style="shape=partialRectangle;collapsible=0;dropTarget=0;pointerEvents=0;fillColor=none;points=[[0,0.5],[1,0.5]];portConstraint=eastwest;top=0;left=0;right=0;bottom=0;" vertex="1" parent="C2uQ8t0dIJBT7GL5n73J-165">
          <mxGeometry y="60" width="250" height="30" as="geometry" />
        </mxCell>
        <mxCell id="C2uQ8t0dIJBT7GL5n73J-170" value="string" style="shape=partialRectangle;overflow=hidden;connectable=0;fillColor=none;top=0;left=0;bottom=0;right=0;" vertex="1" parent="C2uQ8t0dIJBT7GL5n73J-169">
          <mxGeometry width="40" height="30" as="geometry">
            <mxRectangle width="40" height="30" as="alternateBounds" />
          </mxGeometry>
        </mxCell>
        <mxCell id="C2uQ8t0dIJBT7GL5n73J-171" value="Nama_Departemen" style="shape=partialRectangle;overflow=hidden;connectable=0;fillColor=none;top=0;left=0;bottom=0;right=0;align=left;spacingLeft=6;" vertex="1" parent="C2uQ8t0dIJBT7GL5n73J-169">
          <mxGeometry x="40" width="210" height="30" as="geometry">
            <mxRectangle width="210" height="30" as="alternateBounds" />
          </mxGeometry>
        </mxCell>
        <mxCell id="C2uQ8t0dIJBT7GL5n73J-173" value="PK" style="shape=partialRectangle;overflow=hidden;connectable=0;fillColor=none;top=0;left=0;bottom=0;right=0;" vertex="1" parent="1">
          <mxGeometry x="1750" y="147" width="40" height="30" as="geometry">
            <mxRectangle width="40" height="30" as="alternateBounds" />
          </mxGeometry>
        </mxCell>
        <mxCell id="C2uQ8t0dIJBT7GL5n73J-174" value="" style="endArrow=none;html=1;rounded=0;" edge="1" parent="1">
          <mxGeometry width="50" height="50" relative="1" as="geometry">
            <mxPoint x="1751" y="208" as="sourcePoint" />
            <mxPoint x="1750" y="147" as="targetPoint" />
          </mxGeometry>
        </mxCell>
        <mxCell id="C2uQ8t0dIJBT7GL5n73J-181" value="" style="edgeStyle=entityRelationEdgeStyle;endArrow=ERzeroToMany;startArrow=ERone;endFill=1;startFill=0;entryX=0.002;entryY=0.598;entryDx=0;entryDy=0;entryPerimeter=0;" edge="1" parent="1" target="C2uQ8t0dIJBT7GL5n73J-166">
          <mxGeometry width="100" height="100" relative="1" as="geometry">
            <mxPoint x="1390.000347764757" y="164.55" as="sourcePoint" />
            <mxPoint x="1517.63" y="164.55" as="targetPoint" />
            <Array as="points">
              <mxPoint x="1009.63" y="412.77000000000004" />
              <mxPoint x="1149.63" y="332.77000000000004" />
            </Array>
          </mxGeometry>
        </mxCell>
        <mxCell id="C2uQ8t0dIJBT7GL5n73J-182" value="berafiliasi_dengan" style="edgeLabel;html=1;align=center;verticalAlign=middle;resizable=0;points=[];" connectable="0" vertex="1" parent="C2uQ8t0dIJBT7GL5n73J-181">
          <mxGeometry x="0.024" y="1" relative="1" as="geometry">
            <mxPoint as="offset" />
          </mxGeometry>
        </mxCell>
        <mxCell id="C2uQ8t0dIJBT7GL5n73J-183" value="STAF" style="shape=table;startSize=30;container=1;collapsible=1;childLayout=tableLayout;fixedRows=1;rowLines=0;fontStyle=1;align=center;resizeLast=1;" vertex="1" parent="1">
          <mxGeometry x="39" y="439" width="250" height="151" as="geometry" />
        </mxCell>
        <mxCell id="C2uQ8t0dIJBT7GL5n73J-184" value="" style="shape=partialRectangle;collapsible=0;dropTarget=0;pointerEvents=0;fillColor=none;points=[[0,0.5],[1,0.5]];portConstraint=eastwest;top=0;left=0;right=0;bottom=1;" vertex="1" parent="C2uQ8t0dIJBT7GL5n73J-183">
          <mxGeometry y="30" width="250" height="30" as="geometry" />
        </mxCell>
        <mxCell id="C2uQ8t0dIJBT7GL5n73J-185" value="int" style="shape=partialRectangle;overflow=hidden;connectable=0;fillColor=none;top=0;left=0;bottom=0;right=0;fontStyle=0;" vertex="1" parent="C2uQ8t0dIJBT7GL5n73J-184">
          <mxGeometry width="40" height="30" as="geometry">
            <mxRectangle width="40" height="30" as="alternateBounds" />
          </mxGeometry>
        </mxCell>
        <mxCell id="C2uQ8t0dIJBT7GL5n73J-186" value="ID_Staf" style="shape=partialRectangle;overflow=hidden;connectable=0;fillColor=none;top=0;left=0;bottom=0;right=0;align=left;spacingLeft=6;fontStyle=0;" vertex="1" parent="C2uQ8t0dIJBT7GL5n73J-184">
          <mxGeometry x="40" width="210" height="30" as="geometry">
            <mxRectangle width="210" height="30" as="alternateBounds" />
          </mxGeometry>
        </mxCell>
        <mxCell id="C2uQ8t0dIJBT7GL5n73J-187" value="" style="shape=partialRectangle;collapsible=0;dropTarget=0;pointerEvents=0;fillColor=none;points=[[0,0.5],[1,0.5]];portConstraint=eastwest;top=0;left=0;right=0;bottom=0;" vertex="1" parent="C2uQ8t0dIJBT7GL5n73J-183">
          <mxGeometry y="60" width="250" height="30" as="geometry" />
        </mxCell>
        <mxCell id="C2uQ8t0dIJBT7GL5n73J-188" value="string" style="shape=partialRectangle;overflow=hidden;connectable=0;fillColor=none;top=0;left=0;bottom=0;right=0;" vertex="1" parent="C2uQ8t0dIJBT7GL5n73J-187">
          <mxGeometry width="40" height="30" as="geometry">
            <mxRectangle width="40" height="30" as="alternateBounds" />
          </mxGeometry>
        </mxCell>
        <mxCell id="C2uQ8t0dIJBT7GL5n73J-189" value="Nama_Staf" style="shape=partialRectangle;overflow=hidden;connectable=0;fillColor=none;top=0;left=0;bottom=0;right=0;align=left;spacingLeft=6;" vertex="1" parent="C2uQ8t0dIJBT7GL5n73J-187">
          <mxGeometry x="40" width="210" height="30" as="geometry">
            <mxRectangle width="210" height="30" as="alternateBounds" />
          </mxGeometry>
        </mxCell>
        <mxCell id="C2uQ8t0dIJBT7GL5n73J-190" value="" style="endArrow=none;html=1;rounded=0;entryX=0.998;entryY=1;entryDx=0;entryDy=0;entryPerimeter=0;" edge="1" parent="C2uQ8t0dIJBT7GL5n73J-183" target="C2uQ8t0dIJBT7GL5n73J-187">
          <mxGeometry width="50" height="50" relative="1" as="geometry">
            <mxPoint y="90" as="sourcePoint" />
            <mxPoint x="130" y="50" as="targetPoint" />
          </mxGeometry>
        </mxCell>
        <mxCell id="C2uQ8t0dIJBT7GL5n73J-191" value="PK" style="shape=partialRectangle;overflow=hidden;connectable=0;fillColor=none;top=0;left=0;bottom=0;right=0;" vertex="1" parent="1">
          <mxGeometry x="249" y="469" width="40" height="30" as="geometry">
            <mxRectangle width="40" height="30" as="alternateBounds" />
          </mxGeometry>
        </mxCell>
        <mxCell id="C2uQ8t0dIJBT7GL5n73J-192" value="" style="endArrow=none;html=1;rounded=0;" edge="1" parent="1">
          <mxGeometry width="50" height="50" relative="1" as="geometry">
            <mxPoint x="250" y="590" as="sourcePoint" />
            <mxPoint x="249" y="469" as="targetPoint" />
          </mxGeometry>
        </mxCell>
        <mxCell id="C2uQ8t0dIJBT7GL5n73J-193" value="" style="endArrow=none;html=1;rounded=0;entryX=0.16;entryY=0.999;entryDx=0;entryDy=0;entryPerimeter=0;" edge="1" parent="1" target="C2uQ8t0dIJBT7GL5n73J-187">
          <mxGeometry width="50" height="50" relative="1" as="geometry">
            <mxPoint x="79" y="590" as="sourcePoint" />
            <mxPoint x="209" y="479" as="targetPoint" />
          </mxGeometry>
        </mxCell>
        <mxCell id="C2uQ8t0dIJBT7GL5n73J-194" value="" style="endArrow=none;html=1;rounded=0;entryX=0.998;entryY=1;entryDx=0;entryDy=0;entryPerimeter=0;" edge="1" parent="1">
          <mxGeometry width="50" height="50" relative="1" as="geometry">
            <mxPoint x="39" y="559" as="sourcePoint" />
            <mxPoint x="289" y="559" as="targetPoint" />
          </mxGeometry>
        </mxCell>
        <mxCell id="C2uQ8t0dIJBT7GL5n73J-197" value="string" style="shape=partialRectangle;overflow=hidden;connectable=0;fillColor=none;top=0;left=0;bottom=0;right=0;" vertex="1" parent="1">
          <mxGeometry x="39" y="529" width="40" height="30" as="geometry">
            <mxRectangle width="40" height="30" as="alternateBounds" />
          </mxGeometry>
        </mxCell>
        <mxCell id="C2uQ8t0dIJBT7GL5n73J-198" value="string" style="shape=partialRectangle;overflow=hidden;connectable=0;fillColor=none;top=0;left=0;bottom=0;right=0;" vertex="1" parent="1">
          <mxGeometry x="39" y="559" width="40" height="30" as="geometry">
            <mxRectangle width="40" height="30" as="alternateBounds" />
          </mxGeometry>
        </mxCell>
        <mxCell id="C2uQ8t0dIJBT7GL5n73J-201" value="Jabatan" style="shape=partialRectangle;overflow=hidden;connectable=0;fillColor=none;top=0;left=0;bottom=0;right=0;align=left;spacingLeft=6;" vertex="1" parent="1">
          <mxGeometry x="79" y="529" width="210" height="30" as="geometry">
            <mxRectangle width="210" height="30" as="alternateBounds" />
          </mxGeometry>
        </mxCell>
        <mxCell id="C2uQ8t0dIJBT7GL5n73J-205" value="Email" style="shape=partialRectangle;overflow=hidden;connectable=0;fillColor=none;top=0;left=0;bottom=0;right=0;align=left;spacingLeft=6;" vertex="1" parent="1">
          <mxGeometry x="79" y="559" width="210" height="30" as="geometry">
            <mxRectangle width="210" height="30" as="alternateBounds" />
          </mxGeometry>
        </mxCell>
      </root>
    </mxGraphModel>
  </diagram>
</mxfile>
